<svg width="631" height="950" viewBox="0 0 631 950" fill="none" xmlns="http://www.w3.org/2000/svg">
<g opacity="0.3">
<path d="M1033.95 786.175C1024.83 483.721 563.568 -34.9081 527.084 -75C490.926 -34.9081 29.3428 483.721 20.2218 786.175C11.7524 1069.06 246.942 1298.39 527.084 1299.67C807.227 1298.39 1042.42 1068.74 1033.95 786.175Z" stroke="#D7CFE9" stroke-width="40" stroke-miterlimit="10"/>
<path d="M916.351 907.735C909.511 676.805 557.052 280.697 529.364 249.906C501.675 280.697 149.217 676.805 142.376 907.735C135.862 1123.59 315.348 1299.03 529.364 1299.99C743.38 1299.03 922.866 1123.59 916.351 907.735Z" stroke="#D7CFE9" stroke-width="40" stroke-miterlimit="10"/>
<path d="M776.289 1051.74C772.054 904.524 547.289 652.105 529.698 632.54C512.108 652.105 287.342 904.524 283.108 1051.74C278.873 1189.34 393.536 1301.27 529.698 1301.91C666.186 1301.27 780.524 1189.66 776.289 1051.74Z" stroke="#D7CFE9" stroke-width="40" stroke-miterlimit="10"/>
<path d="M776.289 338.107C772.054 485.324 547.289 737.743 529.698 757.308C512.108 737.743 287.342 485.324 283.108 338.107C278.873 200.511 393.536 88.5744 529.698 87.9329C666.186 88.5744 780.524 200.19 776.289 338.107Z" stroke="#D7CFE9" stroke-width="40" stroke-miterlimit="10"/>
</g>
</svg>
