<svg width="33" height="32" viewBox="0 0 33 32" fill="none" xmlns="http://www.w3.org/2000/svg">
<path d="M29.9549 9.68375C29.6263 9.31155 29.2224 9.01351 28.7698 8.80941C28.3172 8.60532 27.8264 8.49985 27.3299 8.5H20.8299V7C20.8282 5.54182 20.2482 4.14383 19.2172 3.11274C18.1861 2.08165 16.7881 1.50165 15.3299 1.5C15.0514 1.50003 14.7785 1.57757 14.5416 1.72394C14.3047 1.87031 14.1133 2.07973 13.9886 2.32875L9.4024 11.5H4.3299C3.66685 11.5 3.03097 11.7634 2.56213 12.2322C2.09329 12.7011 1.8299 13.337 1.8299 14V25C1.8299 25.663 2.09329 26.2989 2.56213 26.7678C3.03097 27.2366 3.66685 27.5 4.3299 27.5H25.8299C26.6829 27.4999 27.5066 27.1882 28.146 26.6236C28.7855 26.0589 29.1967 25.2802 29.3024 24.4338L30.8024 12.4338C30.8641 11.9415 30.8205 11.4417 30.6743 10.9676C30.5282 10.4935 30.283 10.0559 29.9549 9.68375ZM4.8299 14.5H8.8299V24.5H4.8299V14.5ZM27.8299 12.0625L26.3299 24.0625C26.3146 24.184 26.2552 24.2957 26.1631 24.3763C26.0709 24.4569 25.9524 24.501 25.8299 24.5H11.8299V13.3538L16.1824 4.65C16.6651 4.8251 17.0822 5.14459 17.377 5.56504C17.6717 5.98549 17.8299 6.48651 17.8299 7V10C17.8299 10.3978 17.9879 10.7794 18.2692 11.0607C18.5505 11.342 18.9321 11.5 19.3299 11.5H27.3299C27.4012 11.4994 27.4717 11.5141 27.5369 11.5431C27.602 11.572 27.6602 11.6145 27.7075 11.6678C27.7549 11.7211 27.7903 11.7838 27.8114 11.8519C27.8325 11.92 27.8388 11.9918 27.8299 12.0625Z" fill="#6F50AC"/>
</svg>
