<svg width="399" height="540" viewBox="0 0 399 540" fill="none" xmlns="http://www.w3.org/2000/svg">
<g opacity="0.3">
<path d="M388.032 337.224C384.64 224.758 213.123 31.908 199.557 17C186.112 31.908 14.4741 224.758 11.0825 337.224C7.93317 442.415 95.3873 527.689 199.557 528.166C303.727 527.689 391.181 442.296 388.032 337.224Z" stroke="#AB94D8" stroke-width="21.5352" stroke-miterlimit="10"/>
<path d="M344.305 382.424C341.761 296.554 210.701 149.263 200.405 137.813C190.109 149.263 59.049 296.554 56.5054 382.424C54.0828 462.689 120.824 527.926 200.405 528.284C279.986 527.926 346.727 462.689 344.305 382.424Z" stroke="#AB94D8" stroke-width="21.5352" stroke-miterlimit="10"/>
<path d="M292.223 435.975C290.648 381.233 207.07 287.372 200.529 280.097C193.988 287.372 110.41 381.233 108.836 435.975C107.261 487.139 149.898 528.762 200.529 529.001C251.282 528.762 293.798 487.259 292.223 435.975Z" stroke="#AB94D8" stroke-width="21.5352" stroke-miterlimit="10"/>
<path d="M292.223 170.613C290.648 225.355 207.07 319.216 200.529 326.491C193.988 319.216 110.41 225.355 108.836 170.613C107.261 119.449 149.898 77.8254 200.529 77.5869C251.282 77.8254 293.798 119.329 292.223 170.613Z" stroke="#AB94D8" stroke-width="21.5352" stroke-miterlimit="10"/>
</g>
</svg>
