<svg width="807" height="628" viewBox="0 0 807 628" fill="none" xmlns="http://www.w3.org/2000/svg">
<g opacity="0.3">
<path d="M786.293 571.835C779.399 343.255 430.803 -48.7004 403.23 -79C375.904 -48.7004 27.0608 343.255 20.1677 571.835C13.7669 785.629 191.512 958.942 403.23 959.912C614.948 958.942 792.693 785.386 786.293 571.835Z" stroke="#BCA4EB" stroke-width="40" stroke-miterlimit="10"/>
<path d="M697.42 663.704C692.25 489.179 425.879 189.819 404.953 166.549C384.027 189.819 117.656 489.179 112.486 663.704C107.563 826.837 243.21 959.428 404.953 960.155C566.696 959.428 702.343 826.837 697.42 663.704Z" stroke="#BCA4EB" stroke-width="40" stroke-miterlimit="10"/>
<path d="M591.568 772.537C588.367 661.277 418.5 470.511 405.206 455.725C391.912 470.511 222.045 661.277 218.845 772.537C215.644 876.525 302.301 961.122 405.206 961.606C508.357 961.122 594.768 876.768 591.568 772.537Z" stroke="#BCA4EB" stroke-width="40" stroke-miterlimit="10"/>
<path d="M591.568 233.206C588.367 344.466 418.5 535.232 405.206 550.018C391.912 535.232 222.045 344.466 218.845 233.206C215.644 129.218 302.301 44.6215 405.206 44.1367C508.357 44.6215 594.768 128.976 591.568 233.206Z" stroke="#BCA4EB" stroke-width="40" stroke-miterlimit="10"/>
</g>
</svg>
