<svg width="97" height="128" viewBox="0 0 97 128" fill="none" xmlns="http://www.w3.org/2000/svg">
<path d="M96.9788 47.8149C96.1068 75.9758 51.9916 124.266 48.5016 128C45.0402 124.266 0.893185 75.9758 0.0212517 47.8149C-0.789417 21.4722 21.7036 0.116234 48.5016 0C75.2964 0.116234 97.7894 21.5013 96.9788 47.8149Z" fill="#EDEAF3"/>
<path fill-rule="evenodd" clip-rule="evenodd" d="M39.9819 38.068C37.1042 38.068 37.8552 34.8081 35.9239 31.899C33.1483 27.7184 26.7861 26.7044 23.7968 31.2075C21.9264 34.0249 22.3029 37.4738 24.754 39.9105C25.1174 40.2718 25.3709 40.5257 25.7304 40.8892L29.9688 44.7723C30.5073 45.1857 30.9581 45.4967 30.9581 46.1894C30.9581 47.9709 29.0205 46.8365 28.249 46.4922C25.5327 45.2801 21.2345 42.8806 18.3247 42.8806C13.3335 42.8806 9 46.951 9 51.9045C9 55.0227 10.1359 57.2007 12.1931 59.2393C13.6228 60.6563 16.4248 61.9811 19.2271 61.9811C21.56 61.9811 23.1977 61.15 24.974 60.6594C26.2161 60.3163 29.4495 58.9732 30.5069 58.9732C31.8584 58.9732 33.0156 60.9809 30.7602 62.084C30.0948 62.4094 29.6144 62.6531 28.9529 62.9838C27.6955 63.6125 26.4551 64.163 25.328 64.9237C23.5409 66.1299 21.3327 69.1315 21.3327 72.0578C21.3327 75.2856 21.8665 77.332 24.0009 79.4663C28.158 83.6234 35.7622 82.8841 38.5798 77.574C39.6291 75.5963 40.077 73.052 40.6439 70.7645C40.8425 69.9637 40.8754 68.8995 41.7869 68.8995C43.0218 68.8995 42.9431 70.2634 43.1194 71.3269L44.2344 78.0327C44.399 78.9802 44.6158 80.4078 44.9245 81.2529C46.3706 85.2123 49.8999 87.6391 53.5545 88H55.4422C57.5735 87.7858 59.6322 86.8316 61.2253 85.0289C62.6943 83.3665 64.0351 80.5844 63.6888 78.1404C63.2951 75.3615 62.5067 73.5974 60.6243 71.7193L57.1648 68.1102C56.6173 67.5691 55.7981 66.6258 56.4524 65.8179C57.2955 64.7768 59.5114 66.5668 61.1893 67.3944C63.7666 68.6656 64.0905 69.0498 67.2043 69.0498C68.761 69.0498 70.566 68.1699 71.3809 67.3609C72.9643 65.789 73.3706 64.7115 73.3706 62.2818C73.3706 59.7049 71.4243 57.7458 69.181 56.9962C67.8158 56.5402 64.7293 56.3293 63.6309 55.3272C62.1113 53.9408 62.8616 51.3573 64.6635 50.7172C65.5641 50.3973 66.9947 50.0852 68.0197 49.8622C70.3024 49.3656 72.583 48.8826 74.7456 48.1657C78.3788 46.9613 81.9434 43.1434 81.9434 38.3685C81.9434 35.3907 80.8911 32.8707 79.1278 31.1075C75.1726 27.1523 68.7125 27.4521 64.9841 31.4859C64.6444 31.8534 64.5966 32.0213 64.2357 32.392L59.5786 37.661C58.7396 38.6589 58.126 39.7221 56.5261 39.7221C54.8944 39.7221 53.9693 38.3743 53.9693 37.015C53.9693 36.3758 54.8267 33.9872 55.0856 33.3184C55.651 31.8585 57.5302 28.1414 54.571 28.1414C53.0984 28.1414 52.677 30.9559 52.2281 32.1152C50.9724 35.3576 49.8704 38.3276 52.4252 41.1157C54.0655 42.9058 56.9791 43.2574 59.0852 42.2811C59.8832 41.9112 60.3191 41.4139 60.926 40.8131C61.2985 40.4444 61.3715 40.3648 61.7033 39.9359L63.2573 38.1811C65.5414 35.8843 67.8443 31.4501 71.566 31.4501C73.7802 31.4501 75.4266 31.7577 76.9488 33.2864C80.4301 36.7823 78.821 42.6568 74.828 44.7887C71.3685 46.6359 64.3285 46.5034 61.5236 49.0809C58.1653 52.167 59.7814 57.796 64.0426 58.9764C66.2057 59.5756 70.3629 59.4884 70.3629 62.7328C70.3629 63.8795 69.847 64.6171 69.2025 65.182C68.6992 65.623 67.34 66.0416 66.4525 66.0416C62.6173 66.0416 58.6961 60.4407 54.9959 63.0072C53.9383 63.7408 53.0672 64.9601 53.0672 66.6432C53.0672 69.3348 55.7216 70.7336 56.9999 72.336C58.8893 74.7044 60.5871 75.4363 60.5871 78.9759C60.5871 81.3444 58.8454 83.4081 57.2719 84.2334C55.054 85.3968 52.546 85.0167 50.6272 83.8221C49.919 83.3813 48.9639 82.4241 48.5215 81.7166C47.3661 79.8694 46.6254 73.5561 46.2132 71.0908C45.9959 69.7909 45.9083 68.702 45.3391 67.7537C43.3309 64.4077 38.7287 65.6295 37.844 69.1669C37.5791 70.2261 37.2709 71.4789 37.0049 72.5389C36.6664 73.8875 36.5609 74.7223 35.9765 75.8721C33.1029 81.526 24.3412 79.2694 24.3412 72.8094C24.3412 69.3157 26.5811 67.6283 29.2543 66.2921C31.0957 65.3717 33.3654 64.7268 34.4535 62.9187C35.7288 60.7996 35.0983 58.1648 33.2619 56.8199C30.6535 54.9096 27.8868 56.55 24.4375 57.5649C22.5068 58.1329 21.0243 58.8223 18.927 58.8223C15.3419 58.8223 12.6206 56.2385 12.1089 52.8525C11.5951 49.4517 14.5796 46.0385 17.8742 46.0385C20.1049 46.0385 21.1012 46.6608 22.8868 47.4929C24.2225 48.1154 28.5568 50.2496 29.6053 50.2496H30.3573C33.7148 50.2496 35.546 45.819 32.5789 42.9144C32.1092 42.4546 31.7752 42.2782 31.2961 41.7909L28.8089 39.4652C28.2595 39.0059 28.0447 38.8396 27.5373 38.3305C26.6805 37.4711 25.695 36.6526 25.695 35.0593C25.695 31.1114 30.2161 30.2794 32.7305 32.8365C34.4383 34.5733 34.5148 37.6955 36.0464 39.5974C38.6544 42.8358 44.6452 41.1432 44.6452 36.1121C44.6452 34.1628 43.8507 30.7525 43.529 28.6557C43.3319 27.3718 43.142 26.3329 42.9265 25.047C42.7102 23.7569 42.3893 22.6283 42.3893 21.2227C42.3893 15.5614 48.5946 12.2779 52.8925 15.081C54.0645 15.8453 55.3119 18.0643 56.2259 18.0643C57.0306 18.0643 57.8803 17.2924 57.8803 16.5603C57.8803 15.4168 55.7427 13.2935 54.936 12.7366C51.978 10.694 48.1535 10.4394 44.9443 12.0466C42.0559 13.4931 40.1362 16.164 39.4656 19.3517C38.9351 21.8735 40.2285 27.8178 40.6704 30.4612C40.8508 31.5398 41.8357 36.0802 41.462 36.9825C41.2582 37.4743 40.7229 38.0672 39.9828 38.0672L39.9819 38.068Z" fill="#714ABF"/>
<path fill-rule="evenodd" clip-rule="evenodd" d="M14.1136 20.6212C14.1136 17.6646 17.812 15.7544 20.2407 17.9533C22.2067 19.7331 21.6675 24.2308 17.5728 24.2308C15.7152 24.2308 14.1137 22.4114 14.1137 20.6212H14.1136ZM11.1057 20.1701C11.1057 22.6182 11.5429 23.8698 13.2454 25.5502C13.8303 26.1273 14.4506 26.4835 15.2706 26.8337C17.9055 27.9593 20.8547 27.1263 22.5788 25.3265C26.3485 21.3912 24.3192 14.3855 17.9839 13.8915C14.8156 13.6444 11.1057 16.6341 11.1057 20.1701Z" fill="#714ABF"/>
<path fill-rule="evenodd" clip-rule="evenodd" d="M79.5368 81.9842C74.497 81.9842 74.497 74.7651 79.5368 74.7651C82.3389 74.7651 84.1982 78.5409 81.9878 80.8257C81.4521 81.3794 80.5514 81.9842 79.5368 81.9842ZM86.0039 77.7996V78.8576C85.8773 80.4237 85.1882 81.9971 83.8641 83.3036C80.0287 87.0881 72.6184 84.5182 72.6184 78.3746C72.6184 75.6182 74.2253 73.4139 76.4734 72.3034C78.0888 71.5055 80.1483 71.4434 81.8404 72.1606C84.3407 73.2203 85.8132 75.4285 86.0038 77.7997L86.0039 77.7996Z" fill="#714ABF"/>
<path fill-rule="evenodd" clip-rule="evenodd" d="M55.4728 22.8775C55.4728 25.5636 58.4808 25.1264 58.4808 23.1783C58.4808 20.9914 55.4728 21.5328 55.4728 22.8775Z" fill="#714ABF"/>
</svg>
