<svg width="97" height="128" viewBox="0 0 97 128" fill="none" xmlns="http://www.w3.org/2000/svg">
<path d="M96.9788 47.8149C96.1068 75.9758 51.9916 124.266 48.5016 128C45.0402 124.266 0.893185 75.9758 0.0212517 47.8149C-0.789417 21.4722 21.7036 0.116234 48.5016 0C75.2964 0.116234 97.7894 21.5013 96.9788 47.8149Z" fill="#EDEAF3"/>
<path fill-rule="evenodd" clip-rule="evenodd" d="M49.8883 64.1567C49.8883 62.3066 50.0143 61.2565 51.2879 59.861C53.0166 57.9668 56.2176 57.714 58.4353 59.4066C59.1399 59.9444 59.7024 60.6419 60.0615 61.5772C60.905 63.774 60.1624 65.9981 58.8728 67.2877C57.6052 68.5553 55.451 69.2518 53.3006 68.4962C52.442 68.1945 51.5759 67.5847 51.0811 66.919C50.5723 66.2344 49.8882 65.247 49.8882 64.1567L49.8883 64.1567ZM66.3414 67.4789C65.2776 67.4789 64.5245 67.4212 63.8034 66.5365C63.0478 65.6092 62.4817 61.083 64.4661 59.9083C65.5796 59.249 69.8887 59.9078 71.0228 55.5491C71.543 53.55 71.0672 50.7806 71.2481 48.497C71.6406 43.5427 79.1558 43.7491 79.1558 48.8109C79.1558 54.7658 79.7827 59.0211 75.2403 63.5634C73.0029 65.8008 69.7592 67.4789 66.3413 67.4789H66.3414ZM61.7536 35.9965C62.4764 35.5125 62.9007 34.693 63.6543 34.2544C64.5466 33.735 65.8668 33.9428 65.8668 35.5219C65.8668 36.3905 62.511 39.6025 61.7536 40.1097C61.0186 39.0122 58.0789 36.8295 57.783 35.8469C57.2621 34.1171 59.6095 32.7947 61.7536 35.9965ZM54.9508 35.3637C54.9508 37.8229 56.9506 39.1828 58.9455 41.1776C59.2972 41.5294 60.4879 42.4738 60.4879 42.9573C60.4879 45.2415 58.8859 44.6976 55.9 44.6976C53.4898 44.6976 45.0396 44.5207 43.3083 44.9204C39.4171 45.8187 38.7943 52.9242 45.3004 52.9242H68.398C68.398 55.8125 68.1872 56.3615 65.1856 56.8309C62.8311 57.1991 62.8818 57.9164 61.5953 58.7777C61.0152 57.9114 60.1014 57.0293 59.1183 56.5085C55.9078 54.8078 52.0962 55.2059 49.611 57.7095C46.2871 61.0579 46.2266 65.4989 49.2283 69.088C51.2365 71.4891 55.5551 72.3906 58.9089 70.6459C60.0106 70.0727 60.9241 69.2722 61.5953 68.2698C62.2274 68.693 63.0454 69.8059 64.645 70.1248C68.4359 70.8802 73.3239 68.8069 75.9555 66.6515C77.9328 65.0323 79.2507 63.3696 80.4242 60.9952C82.0391 57.7275 82.0035 54.0755 82.0035 50.0765C82.0035 45.7588 79.7958 42.0503 75.2242 42.116C70.5395 42.1833 68.398 45.6779 68.398 50.0765H44.193C43.1069 50.0765 42.4777 47.6393 44.4973 47.5331C47.9223 47.3531 57.8045 47.9245 59.8965 47.4284C61.315 47.092 62.1813 46.4137 62.7625 45.2319C63.2796 44.1805 63.0535 44.3678 63.1763 43.1144C63.2534 42.3281 63.8599 42.0369 64.3243 41.573C66.5736 39.3263 68.7144 37.8634 68.7144 35.2053C68.7144 32.7132 65.5446 29.6608 61.7535 32.1995C61.621 32.0844 61.4935 31.9694 61.3147 31.8472C58.9157 30.2075 54.9507 31.9543 54.9507 35.3635L54.9508 35.3637Z" fill="#714ABF"/>
<path fill-rule="evenodd" clip-rule="evenodd" d="M61.9117 75.5469C60.3134 75.5469 58.2038 75.2837 56.785 74.9783C55.125 74.6209 53.7808 74.1603 52.326 73.5838C51.1303 73.1099 49.5667 72.2093 48.5342 71.5221C47.1539 70.6035 46.4065 69.822 45.2767 68.926C44.6231 68.4076 44.4676 68.0009 43.919 67.4361C42.7806 66.2641 40.9701 63.7374 40.3716 62.2824C38.1002 56.7601 37.8648 56.2549 37.8648 50.0762C37.8648 46.9419 39.1934 43.0252 40.2354 40.8979C41.5193 38.277 43.1911 36.1005 45.1787 34.1341C45.5235 33.7929 45.6098 33.7671 45.9564 33.488C46.26 33.2435 46.3972 33.0537 46.6996 32.8074C52.3114 28.2358 59.8533 26.4749 67.0384 28.0217C71.8899 29.0661 76.6362 31.8494 79.8359 35.6323C80.1035 35.9486 80.2437 36.0298 80.515 36.377C82.0551 38.3481 83.3354 40.5293 84.2658 42.9093C84.5519 43.6413 84.8149 44.4251 85.0112 45.1699C86.8534 52.1644 85.507 59.9887 81.2586 65.6261C79.3193 68.1993 77.8993 69.5291 75.3167 71.3912C71.7272 73.9794 66.3324 75.5467 61.9117 75.5467V75.5469ZM35.0172 51.5C35.0172 58.3922 37.2308 63.2703 40.9154 68.2248C42.0812 69.7924 44.3187 71.8427 45.9104 73.0384C48.2522 74.7978 51.6929 76.5683 54.6335 77.2879C59.895 78.5754 63.8169 78.6537 69.0326 77.2888C72.1302 76.4782 75.2421 74.8865 77.7321 73.0156C79.0777 72.0047 79.9734 71.1658 81.1729 69.9701C84.6238 66.5305 86.8018 62.066 87.9871 57.3254C89.307 52.0465 88.4956 44.9329 86.2749 40.5839C84.6532 37.4079 83.4135 35.1407 80.8422 32.5693C78.5355 30.2625 75.7958 28.5564 72.8816 27.0827C72.0512 26.6627 71.385 26.4927 70.501 26.1409C65.557 24.173 58.5453 24.3051 53.3864 26.0469C51.1922 26.7878 48.4402 28.1082 46.6324 29.4179C42.5832 32.3513 39.4821 35.7697 37.3918 40.4274C36.078 43.3553 35.0171 47.269 35.0171 51.4998L35.0172 51.5Z" fill="#714ABF"/>
<path fill-rule="evenodd" clip-rule="evenodd" d="M60.4879 19.3855V22.075C68.7664 22.075 74.0904 24.0279 80.0374 28.4708C80.4522 28.7806 80.7361 28.9606 81.0971 29.3096L82.955 31.0903C83.2718 31.5075 83.4702 31.6934 83.8637 32.08C86.6429 34.8111 89.297 40.3201 90.2936 44.3181C93.5594 57.4204 87.601 71.0181 76.1193 77.2571C72.9655 78.9708 69.6601 80.065 65.9988 80.5838C62.4675 81.0844 58.5204 80.2377 56.1647 84.197C54.7317 86.6054 55.109 88.4389 55.109 91.6843H57.7985C57.7985 88.6416 57.2957 84.6852 60.9971 83.8087C63.7141 83.1653 67.8798 84.0629 74.5678 81.0845L82.1649 76.4999C82.6232 76.1533 82.8024 75.8878 83.2309 75.5093C83.6743 75.1175 83.8922 75.0112 84.3385 74.5602C87.4469 71.4185 89.1424 68.8454 91.1287 64.8973C91.7798 63.6031 92.892 60.1832 93.1978 58.7398C95.0096 50.1862 93.469 40.0883 88.0616 32.9447C85.5965 29.6881 83.3544 27.2405 79.8203 24.8909C76.8012 22.8838 71.5408 20.2929 68.24 20.0182C68.7593 19.2427 72.5114 17.1709 72.5114 11.317H69.822C69.822 13.7696 68.7277 15.7724 67.095 17.2913C65.5163 18.7601 63.4858 19.3854 60.4879 19.3854V19.3855Z" fill="#714ABF"/>
<path fill-rule="evenodd" clip-rule="evenodd" d="M20.3044 11.6329C20.3458 13.4899 24.2595 24.1483 24.2595 30.6173C24.2595 35.3945 24.1068 38.0639 22.6587 42.622C21.541 46.1406 19.9751 48.9675 18.4042 52.1311C15.0428 58.9002 14.3398 67.3817 15.5572 74.7569C16.0208 77.5652 17.748 83.2344 18.6192 86.2496L20.3044 92C21.1672 91.9282 21.9728 91.4389 22.8357 91.3671C22.8151 90.4443 20.2238 81.8431 19.8981 80.6991C18.2935 75.0621 17.7731 73.2961 17.7731 67.0039C17.7731 63.6331 18.545 60.0679 19.335 57.4915C21.2721 51.1744 24.1326 48.4395 25.7791 41.7872C28.5315 30.6673 26.6737 25.8145 24.259 16.0627C24.0431 15.1907 23.8181 14.4413 23.5928 13.565C23.4304 12.9332 23.0511 11.6906 22.9937 11C22.1351 11.0192 21.1189 11.443 20.3042 11.6329L20.3044 11.6329Z" fill="#714ABF"/>
</svg>
