<svg width="97" height="128" viewBox="0 0 97 128" fill="none" xmlns="http://www.w3.org/2000/svg">
<path d="M96.9788 47.8149C96.1068 75.9758 51.9916 124.266 48.5016 128C45.0402 124.266 0.893185 75.9758 0.0212517 47.8149C-0.789417 21.4722 21.7036 0.116234 48.5016 0C75.2964 0.116234 97.7894 21.5013 96.9788 47.8149Z" fill="#EDEAF3"/>
<path fill-rule="evenodd" clip-rule="evenodd" d="M45.7768 93.7076V91.5351H49.7876V93.7076C49.7876 94.5476 49.6373 94.456 49.6205 95.2117H45.9439C45.927 94.456 45.7768 94.5476 45.7768 93.7076ZM90.5647 36.8199V38.9731C90.3734 42.3132 89.3056 45.5854 87.6093 48.6382C86.9862 49.7594 86.8301 49.2995 86.705 50.9092C86.2663 56.5534 80.7579 61.1639 74.8679 60.6078C73.9348 60.5197 73.1729 60.2369 72.4594 59.8389C69.7808 58.3447 68.8392 56.0964 68.8392 52.9306C68.8392 49.4212 71.4912 46.1473 73.6492 44.7053C76.8284 42.581 78.915 43.2257 79.4312 42.2986C80.7876 39.8631 80.6331 35.8123 79.1329 33.6126C76.9426 30.401 72.2671 31.6886 71.8394 32.2001C71.4206 32.7009 71.7102 36.1689 69.3431 39.2295C67.44 41.6902 65.2001 43.146 63.2273 45.6476C59.6136 50.23 60.7037 58.6487 59.8447 64.4919C59.7248 65.3078 59.4971 66.3934 59.4805 67.1359C59.9458 66.8244 60.0581 66.4674 60.8175 66.4674C61.8938 66.4674 62.7775 67.6753 63.4496 68.3475C64.116 69.014 65.0052 69.7443 65.4968 70.4783C66.2504 69.9736 66.8582 68.807 68.0036 68.807C69.6742 68.807 73.1537 73.6286 74.6883 74.6562C75.9326 69.3153 82.8049 67.6821 86.2623 71.6053C90.2853 76.1704 86.6161 82.353 82.7101 82.678C83.0757 83.2241 83.8799 83.8294 83.8799 84.6834C83.8799 85.795 80.7587 88.7644 79.8287 89.4031L82.2087 91.7024C83.8615 90.8279 90.5647 85.9803 90.5647 90.3654C90.5647 93.1449 83.3944 91.2106 79.9809 101.173C79.6804 102.05 79.0031 102.499 78.3271 102.565H77.9743C77.2052 102.488 76.5266 101.908 76.5266 100.894C76.5266 100.044 77.5363 97.8711 77.8622 97.216C78.1524 96.6327 78.4076 96.2056 78.7685 95.6154C79.1383 95.0105 79.3802 94.8172 79.7422 94.1688L77.3622 91.8694C76.8706 92.6035 75.9056 93.4095 75.2314 94.0837C72.6408 96.6746 72.9137 96.2079 70.6774 94.7105C70.5693 96.01 69.28 97.8198 68.4146 98.4639C65.6754 100.503 62.1227 100.59 59.5179 98.1825C57.9706 96.7522 57.475 94.9607 57.475 92.705C57.475 89.6543 60.1521 87.2721 62.6558 86.6887C61.6853 85.2394 56.8066 81.5434 56.8066 80.004C56.8066 78.8587 57.9732 78.2507 58.4399 77.5352L55.8039 74.9904C55.0934 75.4661 54.5751 76.0835 53.7984 76.4945L53.1261 94.3723C53.1328 95.9713 53.5148 98.7213 51.2917 98.7213C42.6216 98.7213 42.4157 99.7778 42.4383 94.3723L42.1458 88.4814C42.0065 87.4641 42.1197 86.3792 42.1068 85.3451C42.0943 84.3282 41.9274 83.7261 41.9325 82.5112C41.9416 80.4158 41.7659 78.7178 41.7659 76.4945C39.1845 75.1285 37.3019 71.9816 36.4903 68.7348C35.6105 65.2154 35.2483 60.4702 35.2483 56.2731C35.2483 55.313 36.9254 54.3769 38.1411 55.5528C38.5036 55.9032 38.5574 56.134 38.5934 56.7718L38.9151 61.2966C39.2115 65.1602 39.5028 69.8084 42.3062 72.612C42.7476 73.0534 43.4883 73.8206 44.2728 73.8206H51.2918C52.9462 73.8206 54.8033 70.9016 55.1356 69.4756C54.0942 68.7782 51.6563 66.0799 50.5816 65.0051C49.7475 64.171 46.4454 61.3336 46.4454 60.284C46.4454 59.0957 47.0956 58.4457 48.2838 58.4457C49.8022 58.4457 54.8474 65.2425 56.3054 65.6319C56.3054 63.4963 56.8251 61.403 56.8039 59.1114C56.7856 57.1145 57.0163 54.6265 57.277 52.5655C57.9032 47.6157 58.7978 45.6444 61.2938 42.5442C62.33 41.2571 63.7165 40.2644 64.8727 39.1042C70.223 33.7355 66.7145 30.9393 69.2806 29.474C70.4415 28.811 73.0798 28.0301 74.8556 28.0301C85.1433 28.0301 85.2815 41.3941 81.4234 45.6278C80.8256 46.2837 80.3514 46.2432 79.1971 46.2424C74.3597 46.2391 70.0101 53.3424 73.3222 56.3026C75.752 58.474 79.5374 56.5996 81.2516 54.8145C84.0504 51.8998 82.5378 50.0089 83.9448 47.9819C91.6734 36.8481 84.605 21.5711 71.0431 25.2203C67.8584 26.0772 68.4945 26.9097 65.6662 25.0198C63.5994 23.6389 61.4345 22.8086 59.0019 21.9913C52.3251 19.7479 43.1228 19.7847 36.439 22.0344C34.8987 22.5528 33.1951 23.1462 31.7935 23.9066C31.1064 24.2794 30.4415 24.6558 29.7992 25.0876C27.0224 26.9546 27.5758 25.998 24.3896 25.1851C19.6029 23.9637 14.7418 25.0153 11.5558 28.9039C7.29777 34.1012 7.65982 41.4268 10.9621 46.9684C11.4419 47.7735 12.1263 48.3541 12.1882 49.4191C12.4445 53.8274 15.5465 57.2759 19.5392 57.2759C24.2813 57.2759 23.9858 51.7571 21.751 49.215C17.9729 44.9175 15.3058 47.1315 13.9912 45.4435C9.66849 39.8928 11.5239 28.0301 20.542 28.0301C22.3708 28.0301 25.0574 28.7733 26.2842 29.474C27.2595 30.031 27.4183 30.4069 27.3972 31.8704C27.2998 38.6355 33.4847 39.9884 33.8498 42.6301C33.9756 43.541 33.2115 44.3559 32.3236 44.4875C31.3313 44.6345 30.7496 43.8421 30.1931 43.2797C28.9551 42.0291 27.8682 41.292 26.747 39.8739C23.3697 35.602 24.4982 33.5067 23.793 32.2993C23.377 31.5869 18.4091 30.4349 16.3665 33.7144C15.6943 34.7937 15.1942 36.3028 15.1942 38.057C15.1942 39.2104 15.5099 41.5389 16.188 42.4112C16.5344 42.8571 16.508 42.7221 17.2645 42.8387C23.2091 43.7554 28.7654 50.4868 26.1109 56.6611C25.8755 57.2088 25.217 58.1532 24.8409 58.5665C22.4867 61.1537 18.2666 61.0795 15.3619 59.7821C11.8339 58.2064 9.06254 54.5162 8.84555 50.5892C8.76272 49.0896 5 44.8329 5 38.8927C5 33.4211 6.23597 29.914 9.56114 25.9063C10.7001 24.5334 12.6423 23.3188 14.2451 22.5686C15.7995 21.8411 18.5071 21.178 20.7092 21.178C21.649 21.178 23.5853 21.4807 24.3895 21.6757C27.5471 22.4412 26.5411 22.9571 28.7364 21.685L32.7631 19.6952C38.2471 17.4516 43.0657 17 49.4537 17C55.6325 17 62.2754 18.7697 67.0354 21.8123C67.452 22.0785 67.8229 22.4781 68.312 22.4651C69.7629 22.4264 72.9102 20.2643 78.5698 21.6419C82.3939 22.5728 85.7706 24.9051 87.8217 28.2662C88.3365 29.1097 88.7615 29.822 89.1587 30.773C89.997 32.7797 90.4479 34.8061 90.5649 36.82L90.5647 36.8199ZM64.327 96.5486C60.9206 96.5486 59.9767 92.9999 61.6052 91.1529C63.5666 88.9283 67.4087 90.1374 67.4223 93.2038C67.4298 94.906 66.1672 96.5486 64.327 96.5486ZM45.4425 84.3489H50.1219C50.1219 85.7644 49.9548 86.5504 49.9548 88.0256H45.6097C45.6097 86.5504 45.4425 85.7644 45.4425 84.3489ZM45.1083 77.1628H50.4561C50.1132 77.7732 50.2889 80.021 50.2889 80.8394H45.2753V77.6642C45.2753 77.0253 45.3266 77.6033 45.1082 77.1628H45.1083ZM78.0307 76.3273C78.0307 71.479 84.5484 72.0297 84.5484 75.9929C84.5484 80.5785 78.0307 80.3538 78.0307 76.3273ZM67.9632 72.9445L79.7434 84.6417L72.7242 91.7435L60.9431 80.0453L63.1946 77.7015C64.9917 78.8777 68.833 84.0148 70.1761 84.0148C71.4781 84.0148 72.0143 83.4786 72.0143 82.1765C72.0143 81.2442 70.0006 79.578 69.048 78.6252C68.2032 77.7805 66.5032 75.8867 65.6638 75.3247L67.9631 72.9446L67.9632 72.9445ZM58.6046 72.858L60.8578 70.6854L63.1199 72.8553L60.947 75.12L58.6046 72.858V72.858Z" fill="#714ABF" stroke="#EDEAF3" stroke-width="0.639718" stroke-miterlimit="22.9256"/>
<path fill-rule="evenodd" clip-rule="evenodd" d="M34.9139 31.8736C34.9139 29.2092 44.3644 27.8628 47.7821 27.8628C50.9999 27.8628 55.4811 28.6362 58.386 29.7928C63.8911 31.9848 57.8968 34.8111 56.2343 36.9834L54.6723 38.7638C50.2374 44.1792 51.8351 45.5774 47.1136 45.5774C44.3438 45.5774 43.4221 41.5362 40.3022 38.0165L38.7117 36.2647C37.5327 35.2686 34.914 33.4082 34.914 31.8736L34.9139 31.8736ZM31.4043 31.8736C31.4043 33.568 32.2674 34.7766 33.0492 35.7437L35.9886 38.4864C36.7517 39.0697 36.6727 39.2361 37.2929 39.8561C40.0044 42.5667 41.45 46.519 43.3636 47.8233C45.3056 49.1468 48.0146 49.3417 50.2617 48.7255C50.9698 48.5313 51.5868 48.2416 52.2005 47.8233C54.113 46.5198 55.5756 42.5577 58.2713 39.8561L60.3559 37.7626C61.1152 37.0561 61.5344 36.9447 62.6089 35.6706C63.3068 34.8431 64.2887 33.1136 64.126 31.5845C63.2487 23.3335 40.998 22.4752 33.4312 28.0512C32.3231 28.8677 31.4044 30.4643 31.4044 31.8736H31.4043Z" fill="#714ABF" stroke="#EDEAF3" stroke-width="0.639718" stroke-miterlimit="22.9256"/>
<path fill-rule="evenodd" clip-rule="evenodd" d="M34.2456 49.254C34.2456 50.2738 34.9912 50.9253 36.0838 50.9253C37.9392 50.9253 38.6821 47.5829 35.5825 47.5829C35.0728 47.5829 34.2456 48.3516 34.2456 49.2541V49.254Z" fill="#714ABF" stroke="#EDEAF3" stroke-width="0.639718" stroke-miterlimit="22.9256"/>
</svg>
