<svg width="97" height="128" viewBox="0 0 97 128" fill="none" xmlns="http://www.w3.org/2000/svg">
<path d="M96.9788 47.8149C96.1068 75.9758 51.9916 124.266 48.5016 128C45.0402 124.266 0.893185 75.9758 0.0212517 47.8149C-0.789417 21.4722 21.7036 0.116234 48.5016 0C75.2964 0.116234 97.7894 21.5013 96.9788 47.8149Z" fill="#EDEAF3"/>
<path fill-rule="evenodd" clip-rule="evenodd" d="M68.3341 22.0327L64.9965 22.589C64.1751 22.3762 63.0712 19.4504 61.4071 19.96C60.8055 20.1442 60.4073 20.5964 60.4073 21.3374C60.4073 22.6338 61.8075 22.8349 62.076 23.8406C60.9907 24.0934 59.6637 25.1638 58.8435 25.8926C57.2932 27.2702 55.838 29.013 54.9841 30.9335C52.995 35.4073 53.7975 38.6317 51.7639 43.7059C50.0337 48.0228 46.6949 51.8757 42.7025 54.253L39.0719 56.046C38.5854 56.2317 38.1443 56.327 37.7393 56.5213C37.7393 55.1953 38.1404 52.9056 36.2096 52.9056C34.3841 52.9056 34.8189 55.9633 34.8189 57.2167C33.5634 57.2167 32.2886 57.6339 30.9251 57.6339C30.4116 56.5637 30.3282 54.4353 28.7 54.4353C27.8949 54.4353 27.2855 55.3117 27.387 56.0293C27.4961 56.7999 27.9617 57.6869 28.1437 58.4683C26.1811 59.5067 26.2902 59.2727 24.2217 60.6652C22.8294 61.6024 21.3818 63.2958 20.501 64.7323C19.872 65.7583 19.4105 66.8119 18.9853 67.9449C17.2421 72.5908 17.8411 77.9888 20.5507 82.054C23.0451 85.7961 27.0484 88.4442 31.6393 88.905C37.5418 89.4976 46.9365 87.223 52.2948 84.7053C52.8166 84.4601 54.3647 83.6793 54.8445 83.6394C55.0707 84.6103 55.8318 86.9769 57.0696 86.9769C58.2199 86.9769 58.735 85.9168 58.4045 84.9571C58.1466 84.2084 57.4038 82.783 57.3477 82.1096C57.8966 81.9817 58.6375 81.4102 59.1556 81.1361C60.1141 81.6433 60.9748 82.5237 61.8149 83.205C63.6851 84.7216 64.5792 83.1273 64.5792 82.5268C64.5792 81.0031 62.4888 80.4991 61.7979 79.4673C62.1585 78.9751 63.6147 78.026 64.162 77.6595C65.2283 77.9079 66.5279 79.1891 67.4996 79.1891C68.5076 79.1891 69.0228 78.1541 68.7033 77.3032C68.4062 76.5117 67.3283 76.1565 66.6652 75.7125C67.1792 74.9449 68.0582 74.3381 68.7184 73.7329C69.1746 73.3147 69.3058 73.0567 69.691 72.6193C70.0208 72.2447 70.3707 71.9356 70.733 71.5754C73.4722 68.8521 76.8738 64.1172 78.5325 60.74C78.9755 59.8379 79.8478 58.9196 79.373 57.8691C78.8089 56.6212 77.3231 57.0125 76.7683 58.0023C75.4082 60.4292 74.0466 62.9209 72.3669 65.1435L70.3396 67.7054C69.9945 68.142 69.7121 68.5549 69.345 68.9359L67.1178 71.2978C66.6504 71.7699 66.308 71.9665 65.8628 72.407C62.3214 75.911 58.071 78.5912 53.6879 80.9531C53.15 81.243 52.5936 81.4309 52.0647 81.694C46.9673 84.2291 39.0769 86.1426 33.2891 86.1426C26.3653 86.1426 20.7731 80.4043 20.7731 73.4876C20.7731 68.9023 22.8059 65.798 25.5339 63.2292C28.7302 60.2193 33.1131 60.5504 37.101 59.638C41.5767 58.6139 45.632 56.2098 48.8299 53.01C52.8676 48.9697 55.7664 43.7719 56.37 36.3525C56.5835 33.7284 57.4957 31.7925 58.933 29.8761C62.3878 25.2698 69.5971 23.3412 74.8256 25.9713C77.4396 27.2862 79.5978 29.1278 80.8988 31.8578C84.5487 39.5175 78.9225 52.1017 78.9829 53.4477C79.0272 54.4354 79.881 54.7135 80.7109 54.7135C82.1997 54.7135 82.9942 48.9488 83.6313 47.6211C84.2943 47.9719 86.2638 48.8728 86.9689 48.8728C88.3819 48.8728 88.6088 46.9886 87.5896 46.3051C86.8931 45.8379 84.9139 45.0091 84.1875 44.8398C84.7593 42.3857 85.0219 39.1817 85.0219 36.6349C86.7416 36.6349 89.1939 37.1994 89.1939 35.1052C89.1939 33.3142 86.0112 33.8536 84.6048 33.8536C83.9899 31.2148 82.1461 27.6785 79.9568 25.9855C78.6349 24.9632 77.7956 24.2579 76.2161 23.4682C74.9965 22.8586 72.8695 22.1673 71.2544 22.0329C71.2544 20.5914 72.4033 18 70.0028 18C69.1095 18 68.8282 18.6244 68.6869 19.4654C68.5656 20.1871 68.3481 21.3995 68.334 22.0329L68.3341 22.0327Z" fill="#714ABF"/>
<path fill-rule="evenodd" clip-rule="evenodd" d="M35.9316 29.6816C40.1809 29.6816 41.554 34.1962 39.2067 36.7115C35.6091 40.5666 29.3024 35.392 33.0472 30.9693C33.5853 30.3338 34.7817 29.6816 35.9316 29.6816V29.6816ZM39.5473 27.5956C39.082 27.4871 38.4805 27.1998 38.0046 27.0523C34.8392 26.0707 31.3387 27.7455 29.8554 30.6979C27.8228 34.7437 29.9632 39.6433 34.9581 40.807C35.0566 45.2296 37.7373 44.5776 38.0593 42.9325C38.1237 42.6031 37.9462 41.099 37.7394 40.6679C38.6824 40.4482 39.0756 40.2302 39.8254 39.8335C40.3532 40.6219 42.0803 42.648 43.3859 41.5862C44.9875 40.2836 42.2184 38.3451 41.9113 37.8866C42.8085 36.191 43.1629 35.8513 43.1629 33.5756C43.1629 31.7261 42.3812 30.5205 41.6332 29.4035C44.3228 27.6024 44.6199 25.0924 42.4676 25.0924C41.7243 25.0924 39.9498 26.9944 39.5472 27.5957L39.5473 27.5956Z" fill="#714ABF"/>
<path fill-rule="evenodd" clip-rule="evenodd" d="M60.2682 57.2165C60.2682 53.4738 65.0882 51.5781 67.6019 54.3329C69.1248 56.0019 69.0049 58.398 67.5842 60.0824C65.1751 62.9388 60.2681 60.8899 60.2681 57.2166L60.2682 57.2165ZM57.4868 56.7993C57.4868 58.1596 57.5626 59.0337 58.1787 60.2795C58.5948 61.1209 58.7784 61.3534 59.3807 61.9979C61.3373 64.0913 64.463 64.8977 67.1989 63.73C68.2209 63.2939 69.3799 62.3831 70.1027 61.4883C70.317 61.2229 70.617 60.6972 70.7935 60.3712C72.2259 57.7253 71.5297 54.1422 69.3823 52.1353C68.7667 51.56 68.1433 51.1923 67.3839 50.7962C63.0921 48.5577 57.4868 52.2651 57.4868 56.7993Z" fill="#714ABF"/>
<path fill-rule="evenodd" clip-rule="evenodd" d="M38.991 72.2359C38.991 73.1728 39.6195 73.7616 40.3634 73.7254C40.9768 73.6957 41.6761 73.0026 42.3664 72.8186C43.9244 72.4034 45.5271 73.6389 45.5271 75.1563C45.5271 77.0965 43.4936 78.3556 41.7702 77.3836C40.6125 76.7306 40.454 74.8699 38.8836 75.4531C37.5471 75.9494 37.9304 77.4353 38.6897 78.378L39.2826 79.0367C41.2868 81.1334 44.6218 81.0018 46.6086 79.1581C50.1324 75.888 47.859 69.8717 43.024 69.8717C41.4995 69.8717 38.991 70.8655 38.991 72.2359Z" fill="#714ABF"/>
<path fill-rule="evenodd" clip-rule="evenodd" d="M67.2215 43.1711C64.2679 43.1711 64.8578 39.2773 66.8043 39.2773C69.7246 39.2773 69.25 41.8808 68.5735 42.5761C68.3085 42.8485 67.7172 43.1711 67.2216 43.1711H67.2215ZM62.3541 40.6679C62.3541 42.1604 62.5275 43.4109 63.7115 44.595C67.3204 48.2038 73.6227 44.2411 71.5782 39.3706C71.3543 38.8372 70.9561 38.2405 70.5959 37.8497C70.2731 37.4995 69.5953 37.0371 69.1269 36.8155C65.6994 35.1935 62.3541 38.248 62.3541 40.6679Z" fill="#714ABF"/>
<path fill-rule="evenodd" clip-rule="evenodd" d="M48.3085 61.9453C48.3085 62.792 48.549 63.8719 49.7878 63.7018C52.2622 63.3621 50.7107 59.8882 48.902 61.1415C48.696 61.2841 48.3085 61.6582 48.3085 61.9453H48.3085Z" fill="#714ABF"/>
<path fill-rule="evenodd" clip-rule="evenodd" d="M69.3076 32.4628C69.3076 33.2412 69.7659 33.7954 70.4948 33.9276C72.4841 34.2888 72.6908 31.077 70.7199 31.1499C69.7929 31.1842 69.3076 31.9862 69.3076 32.4628Z" fill="#714ABF"/>
<path fill-rule="evenodd" clip-rule="evenodd" d="M71.8108 46.7868C71.8108 48.6312 74.5921 48.3981 74.5921 47.0649C74.5921 45.7177 74.2706 45.396 72.9234 45.396C72.3437 45.396 71.8108 46.2732 71.8108 46.7867V46.7868Z" fill="#714ABF"/>
<path fill-rule="evenodd" clip-rule="evenodd" d="M60.9635 67.0907C60.9635 68.7523 63.7449 69.3066 63.7449 66.8126C63.7449 65.4465 60.9635 65.2401 60.9635 67.0907Z" fill="#714ABF"/>
<path fill-rule="evenodd" clip-rule="evenodd" d="M31.6204 72.6531C31.6204 74.5652 34.4017 74.751 34.4017 72.6531C34.4017 70.8992 31.6204 71.0552 31.6204 72.6531Z" fill="#714ABF"/>
</svg>
