<svg width="97" height="128" viewBox="0 0 97 128" fill="none" xmlns="http://www.w3.org/2000/svg">
<path d="M96.1977 47.8149C95.3345 75.9758 51.6604 124.266 48.2054 128C44.7785 124.266 1.07304 75.9758 0.209821 47.8149C-0.592741 21.4722 21.6754 0.116234 48.2054 0C74.7322 0.116234 97.0003 21.5013 96.1977 47.8149Z" fill="#EDEAF3"/>
<path fill-rule="evenodd" clip-rule="evenodd" d="M39.794 95.1958C39.794 92.9559 39.2057 89.8494 41.6318 89.8494H55.6661C58.088 89.8494 57.5039 92.9598 57.5039 95.1958C57.5039 96.0403 56.9011 96.8665 56.0003 96.8665H41.2977C40.3968 96.8665 39.7941 96.0403 39.7941 95.1958H39.794ZM40.1281 85.3384C42.369 85.1519 46.2274 80.6601 53.5919 83.7368C54.7655 84.2272 55.9497 85.054 57.1698 85.3384C56.9586 86.1292 56.225 86.1747 55.6787 86.1863C53.7687 86.2271 47.3862 86.0664 46.2134 86.2443C44.5267 86.5 43.7925 86.1795 41.7897 86.183C40.1054 86.186 40.3587 85.777 40.1283 85.3384H40.1281ZM76.7175 52.4246C76.7175 53.4411 78.2125 54.0614 79.3368 56.1542C79.7118 56.8521 80.0394 57.5789 80.2641 58.4013C80.4171 58.9607 80.7291 60.5446 80.7291 61.2795C80.729 66.5297 76.7175 69.2865 76.7175 70.1345C76.7175 73.0961 78.4753 77.153 73.6707 81.6232C70.6851 84.4008 65.5464 85.3335 61.6227 83.5585C58.7407 82.2549 57.6268 81.427 54.2367 80.0848C50.371 78.5543 45.4503 78.9074 41.6877 80.7161L38.0698 82.4446C34.6371 84.3659 34.0906 84.5029 30.1037 84.5029C25.7737 84.5029 20.2463 79.7898 20.2463 74.6456C20.2463 70.0408 21.428 70.5744 19.4495 68.5922C15.5944 64.7299 15.8032 58.0028 19.9565 53.6384C21.2268 52.3033 20.2463 52.4381 20.2463 48.2477C20.2463 43.1591 25.0378 38.2232 31.2732 38.2232C33.882 38.2232 34.335 39.8726 35.3823 41.4654L38.1958 46.0032C39.1855 47.6574 40.0356 48.8801 41.1971 50.3531C43.3099 53.0326 48.0829 52.4245 51.4893 52.4245C55.6925 52.4245 57.7415 48.3233 59.7292 44.9594C60.318 43.9631 63.0526 39.5931 63.5134 39.2203C67.3686 36.1029 77.2188 40.6216 77.2188 48.7488C77.2188 50.0535 76.7176 51.2099 76.7176 52.4245L76.7175 52.4246ZM42.3 45.4074H54.9977C54.7987 46.2616 53.2433 48.7489 51.6562 48.7489H45.9757C44.0044 48.7489 43.1809 47.072 42.3 45.4074ZM55.8331 41.7318H41.4647C39.6961 41.7318 39.7563 42.6113 39.7948 40.0602C39.8679 35.2147 37.6057 31.284 35.7864 27.194L34.6124 24.5252C34.0182 23.1933 32.9439 21.4527 32.9439 20.1791C32.9439 19.3533 33.6217 18.6754 34.4475 18.6754C41.5809 18.6754 41.6904 17.9581 42.2528 21.3958C42.6494 23.8194 42.7927 26.3412 44.7996 27.8711C48.1992 30.4625 52.8926 29.192 54.335 25.364C55.4268 22.4666 54.6224 18.6754 56.8355 18.6754H63.0173C63.8507 18.6754 64.5209 19.4924 64.5209 20.1791C64.5209 21.3111 61.25 27.7192 60.5133 29.3703C59.0201 32.717 57.4574 36.0322 57.5021 39.8922C57.5332 42.5823 57.7146 41.7317 55.833 41.7317L55.8331 41.7318ZM29.1012 20.012C29.1012 22.3633 29.5686 22.4961 30.4861 24.6419C31.4516 26.9003 34.8767 33.9733 35.283 35.7171C26.9528 31.3093 16.5706 39.9666 16.5706 47.5795C16.5706 51.1328 17.1429 51.2009 16.0176 52.54C15.4172 53.2546 14.9533 53.9972 14.5062 54.8714C12.091 59.5937 12.6151 65.6706 15.8287 69.8738C17.1445 71.5947 16.5705 70.6595 16.5705 75.1468C16.5705 78.6223 19.1902 82.6553 21.1306 84.2868C24.9045 87.4597 29.3075 88.8547 34.2991 87.8631C35.2271 87.6788 36.182 87.2404 36.9537 87.1762C37.0727 87.6872 37.2136 87.8184 37.4549 88.1786C35.6949 90.8068 36.1183 91.4609 36.1183 95.3629C36.1183 96.7981 36.7755 98.0614 37.4934 98.8329C38.1684 99.5584 39.3085 100.542 40.6293 100.542H56.6685C58.7499 100.542 61.1795 98.0117 61.1795 95.363C61.1795 91.599 61.5755 90.7662 59.8429 88.1787C60.0841 87.8184 60.2251 87.6872 60.344 87.1763C61.0426 87.2344 62.0789 87.6652 62.845 87.8497C67.4838 88.9671 73.2008 87.3057 76.1758 84.2956C77.5297 82.9259 78.192 82.2289 79.1745 80.4443C79.4376 79.9663 79.523 79.8407 79.7293 79.3284C79.8845 78.9431 80.0124 78.5623 80.1655 78.0938C81.2271 74.8454 80.5176 73.2185 80.5639 71.4576C80.592 70.3879 87.4789 64.2026 82.8998 55.0971C82.4125 54.1281 82.0491 53.4519 81.3572 52.63C80.1371 51.181 80.727 51.5091 80.727 47.9137C80.727 44.4838 79.2334 42.0189 77.2688 39.6766C75.0378 37.0167 70.777 34.5477 67.194 34.5477C62.7051 34.5477 63.5418 35.2648 61.8476 35.7172L63.3484 32.0387C63.8964 30.8189 64.3909 29.7145 64.9671 28.4779C65.5536 27.2193 65.9842 26.1529 66.5833 24.9149C67.9794 22.03 69.1695 19.2253 66.4041 16.4583C65.6214 15.6751 64.5075 15 63.0172 15H56.6683C54.1049 15 52.1119 17.082 51.6637 19.1844C51.3878 20.4784 51.2115 21.8794 50.9936 23.1924C50.7654 24.567 50.2459 25.4682 48.7596 25.6279C45.8827 25.937 46.0471 22.0168 45.572 19.5804C45.0941 17.1296 43.1494 15.0001 40.7962 15.0001H33.9461C31.7387 15.0001 29.1009 17.3262 29.1009 20.0123L29.1012 20.012Z" fill="#714ABF" stroke="#EDEAF3" stroke-width="0.639718" stroke-miterlimit="22.9256"/>
<path fill-rule="evenodd" clip-rule="evenodd" d="M42.1329 63.1176C42.1329 64.3415 43.6336 65.2127 44.5389 65.7239C47.7886 67.5591 51.2457 66.8857 54.1433 64.7694C54.4419 64.5513 54.6476 64.4388 54.8327 64.1221C55.8177 62.4374 54.195 61.2799 53.327 61.2799C51.8559 61.2799 50.2056 64.4091 46.261 62.4983C45.5293 62.1439 44.9013 61.2799 44.1378 61.2799C43.1271 61.2799 42.1329 62.1468 42.1329 63.1177V63.1176Z" fill="#714ABF" stroke="#EDEAF3" stroke-width="0.639718" stroke-miterlimit="22.9256"/>
<path fill-rule="evenodd" clip-rule="evenodd" d="M32.4426 75.648C34.602 75.648 38.9585 74.4921 38.9585 71.9723C38.9585 71.1231 38.1933 70.3016 37.1207 70.3016C35.997 70.3016 33.2588 73.5743 29.673 71.0662C29.2911 70.7991 29.3018 70.6753 28.9287 70.4693C27.1193 69.4705 23.8828 72.1158 28.4867 74.5915C29.5352 75.1554 30.9076 75.6479 32.4426 75.6479V75.648Z" fill="#714ABF" stroke="#EDEAF3" stroke-width="0.639718" stroke-miterlimit="22.9256"/>
<path fill-rule="evenodd" clip-rule="evenodd" d="M58.3393 71.6385C58.3393 73.256 58.8042 73.6923 60.7858 74.7055C65.6741 77.2048 71.037 74.0221 71.037 72.3068C71.037 69.8552 68.8409 70.0605 68.0725 70.679C66.3169 72.0917 64.3783 72.4385 62.2877 71.3657C61.8279 71.1298 61.8415 71.1359 61.4662 70.8506C59.5044 69.3589 58.3392 71.1655 58.3392 71.6385H58.3393Z" fill="#714ABF" stroke="#EDEAF3" stroke-width="0.639718" stroke-miterlimit="22.9256"/>
<path fill-rule="evenodd" clip-rule="evenodd" d="M32.4427 59.6089C34.1044 59.6089 35.26 59.3062 36.512 58.666C40.734 56.5075 38.5887 54.2624 37.1208 54.2624C35.997 54.2624 33.2589 57.5352 29.6731 55.0271C29.2912 54.76 29.3019 54.6362 28.9287 54.4302C27.6424 53.7201 26.2043 54.6353 26.1437 55.9531C26.0531 57.9216 30.1423 59.6088 32.4427 59.6088V59.6089Z" fill="#714ABF" stroke="#EDEAF3" stroke-width="0.639718" stroke-miterlimit="22.9256"/>
<path fill-rule="evenodd" clip-rule="evenodd" d="M58.3393 55.5994C58.3393 57.2168 58.8042 57.6531 60.7858 58.6662C63.2371 59.9195 66.1392 59.9195 68.5903 58.6662C72.9511 56.4367 70.3791 54.2627 69.7003 54.2627C68.8037 54.2627 68.6553 54.1706 68.0725 54.6398C66.0111 56.2987 63.5818 56.42 61.4662 54.8114C59.5044 53.3197 58.3392 55.1263 58.3392 55.5994H58.3393Z" fill="#714ABF" stroke="#EDEAF3" stroke-width="0.639718" stroke-miterlimit="22.9256"/>
</svg>
