<svg width="98" height="128" viewBox="0 0 98 128" fill="none" xmlns="http://www.w3.org/2000/svg">
<path d="M97.956 47.8149C97.0841 75.9758 52.9688 124.266 49.4789 128C46.0174 124.266 1.87042 75.9758 0.998486 47.8149C0.187817 21.4722 22.6809 0.116234 49.4789 0C76.2736 0.116234 98.7667 21.5013 97.956 47.8149Z" fill="#EDEAF3"/>
<path fill-rule="evenodd" clip-rule="evenodd" d="M36.6433 68.9221C35.9014 71.8799 34.0883 70.4506 32.5588 72.0105C31.3379 73.2555 30.2173 74.3762 28.9723 75.597C27.5184 77.0225 28.6501 79.0829 25.9277 79.7408C22.6369 80.5361 21.1537 75.7219 24.2168 74.4279C25.5876 73.8486 25.6047 74.5235 26.7406 73.3652C27.9615 72.1203 29.082 70.9996 30.327 69.7788C31.4854 68.6429 30.8105 68.6258 31.3896 67.255C32.2677 65.1765 34.8428 65.2248 35.9778 66.3597C36.7277 67.1095 36.8544 68.0804 36.6433 68.9221ZM42.5611 54.9347L66.9493 41.4854L91.3374 54.9347C91.3374 55.879 91.2005 55.9154 91.1573 56.7271C91.0189 59.3235 91.1627 58.9869 90.7673 62.2549C90.4844 64.5931 90.0188 66.6569 89.4735 68.8514C88.2704 73.6927 85.8741 78.708 83.1146 82.3974L77.3537 88.4719C75.7481 89.6869 74.5097 90.5912 72.6324 91.6409C67.5021 94.5099 66.6021 94.7747 61.0889 91.9976C57.7752 90.3283 54.6637 87.7545 52.4228 84.8831C47.0816 78.0391 44.8498 70.9353 43.381 62.1845L42.5612 54.9347H42.5611ZM19.6075 49.7343H22.4767V52.6035H19.6075C18.1589 52.6035 18.1604 54.4072 16.1572 53.9187C14.9039 53.613 13.9048 52.5348 13.9066 51.1689C13.9085 49.7139 14.8216 48.7442 16.1591 48.4208C18.1706 47.9342 18.1552 49.7342 19.6075 49.7342V49.7343ZM75.3775 42.5613C74.7047 42.4046 72.8334 41.2242 72.09 40.8276L68.7449 38.9724C66.3115 37.698 66.6975 38.2405 63.5411 39.8705L50.3943 47.1667C49.7859 47.5045 49.2403 47.7966 48.6662 48.1284L43.8244 50.8183C43.2673 51.1404 42.7107 51.4173 42.0988 51.7826C40.8412 52.5331 39.7112 52.5806 39.6803 54.3852C39.6502 56.1416 39.8114 57.8627 39.9974 59.2916C40.2125 60.9448 40.3412 62.2323 40.5873 63.7228L43.8163 75.9156C42.8356 75.4451 41.6097 75.1682 40.5858 74.663C39.5167 74.1356 38.5516 73.5817 37.54 73.0465C38.0933 72.2202 39.5806 71.1866 39.6984 68.9261C39.9747 63.6178 34.7398 61.289 31.0862 63.365C30.2496 63.8403 29.9738 64.3405 29.291 64.7977C26.8958 61.2209 25.3336 55.5707 25.3336 51.169C25.3336 46.7673 26.9063 41.1016 29.291 37.5404C30.1173 38.0937 31.1509 39.581 33.4113 39.6988C35.6369 39.8146 36.966 39.1152 38.0404 38.0409C39.7168 36.3644 40.3317 33.4787 38.9725 31.0866C38.4971 30.25 37.9969 29.9742 37.5398 29.2914C40.2953 27.4462 44.5457 26.0053 47.986 25.5708C51.0341 25.1859 54.3693 25.4244 57.1949 26.1341C59.7038 26.7643 61.195 27.3426 63.1832 28.3947C63.0351 29.0304 62.7481 29.4388 62.6639 30.2071C62.2592 33.9006 64.8091 36.7864 68.201 36.8351C69.223 36.8497 69.463 36.8197 70.2523 36.5397C71.0265 36.2653 71.4016 35.8988 71.9702 35.747C72.1489 36.4165 75.2149 40.6092 75.3773 42.5614L75.3775 42.5613ZM22.4767 25.5255C22.4141 25.1211 22.8083 23.6343 23.6173 23.0796C25.2384 21.968 27.4992 22.6171 28.0446 24.6201C28.5054 26.3128 28.0299 25.8114 29.2454 27.0057C30.4531 28.1924 31.5905 29.4855 32.8256 30.5985C33.7519 31.4335 36.5859 30.9441 36.7792 33.8086C37.003 37.1243 32.1424 37.939 31.255 34.6796C30.7942 32.9869 31.2696 33.4882 30.0541 32.294C28.8464 31.1073 27.709 29.8142 26.474 28.7011C25.5065 27.8291 22.9335 28.477 22.4767 25.5254V25.5255ZM79.6814 23.0149C79.5002 23.7368 79.5624 23.7772 79.1515 24.2783C77.9612 25.7308 76.9295 24.7442 75.5968 26.1034C74.3759 27.3483 73.2553 28.469 72.0103 29.6898C70.8541 30.8235 71.5251 30.8398 70.9484 32.2143C70.6038 33.0357 69.9163 33.6038 68.9657 33.8336C65.6749 34.6289 64.1917 29.8148 67.2548 28.5207C68.6256 27.9414 68.6427 28.6164 69.7786 27.458C70.9995 26.2131 72.1201 25.0924 73.365 23.8716C74.5234 22.7358 73.8485 22.7187 74.4277 21.3478C74.556 21.0438 74.9454 20.4758 75.1637 20.2906C75.4445 20.0523 75.9527 19.8394 76.4113 19.7296C78.1876 19.305 80.2318 20.82 79.6813 23.0149H79.6814ZM52.6033 19.6077V22.4769H49.7341V19.6077C49.7341 18.1591 47.9303 18.1606 48.4189 16.1574C49.1471 13.1716 53.1903 13.1716 53.9185 16.1574C54.407 18.1606 52.6034 18.1591 52.6034 19.6077H52.6033ZM45.4303 16.3799C45.4303 17.7655 45.4544 18.5471 46.3842 19.7298C47.0913 20.6296 46.8649 20.0751 46.8649 22.8356C44.664 22.8356 40.3394 24.3654 38.4737 25.3831C37.9623 25.662 37.5978 25.8349 37.0609 26.1223C36.0621 26.657 35.1925 27.2672 34.3122 27.8566L31.176 24.7164C30.7437 23.8249 30.4105 19.6077 24.9873 19.6077C19.4188 19.6077 17.19 28.0304 23.068 30.6725C24.6521 31.3846 24.0787 30.4261 25.7496 32.1154C26.4548 32.8283 27.3275 33.5225 27.8564 34.3124C25.6647 37.5854 22.8354 42.9199 22.8354 46.8651C20.4557 46.8651 20.6379 47.1017 19.8253 46.468C19.4622 46.1847 19.529 46.1947 19.0779 45.9602C16.1322 44.4288 11 46.0145 11 51.5276C11 54.4057 13.8248 56.9073 16.2005 56.9073C17.652 56.9073 18.4708 56.9428 19.7296 55.9534C20.6294 55.2462 20.0749 55.4726 22.8354 55.4726C22.8354 59.3976 25.8053 64.9623 27.8564 68.0254C27.3333 68.8067 26.532 69.4357 25.8391 70.1325C24.0111 71.9709 24.6825 70.9394 23.068 71.6652C17.6191 74.1144 18.6285 82.7299 25.7045 82.7299C28.0741 82.7299 29.909 80.9675 30.6723 79.2694C31.3843 77.6852 30.4259 78.2586 32.1152 76.5877C32.8281 75.8825 33.5223 75.0099 34.3122 74.4809C37.0886 76.3401 40.0665 77.9598 43.6727 78.9283C46.062 79.5701 44.9765 78.7528 47.0512 82.3641C50.476 88.3253 55.3441 92.7193 61.5641 95.4672C66.6706 97.7232 67.8519 97.477 73.1087 94.807C78.4509 92.0936 83.3564 87.4385 86.6392 82.5147C92.2046 74.1674 94.2066 64.5308 94.2066 54.0378C94.2066 52.8027 93.2037 52.5909 92.3564 52.1222L80.2751 45.3745C78.7663 44.5647 79.4513 45.2848 78.7638 43.1199C77.771 39.9937 76.3896 36.787 74.3745 34.2368C73.9249 33.6679 73.4096 33.0606 74.2764 31.597L77.1156 28.6978C77.6602 28.1669 77.472 28.3114 78.3158 28.1047C79.0582 27.9227 79.1496 27.8908 79.7427 27.5589C84.679 24.7961 83.4621 16.7383 76.6329 16.7383C75.1522 16.7383 73.8819 17.4758 73.0865 18.213C70.7476 20.3809 72.4119 20.7033 70.1325 22.9698C69.6396 23.46 69.2766 23.8207 68.7877 24.315C67.2705 25.8489 67.9292 25.0583 66.3622 25.6551C65.0461 26.1565 65.9166 26.4421 63.126 25.0448C61.4025 24.1818 57.3456 22.8354 55.4726 22.8354C55.4726 18.7319 55.3731 21.0101 56.3775 19.0779C57.9264 16.0985 56.2794 11 50.8102 11C48.0428 11 45.4305 13.6123 45.4305 16.3797L45.4303 16.3799Z" fill="#714ABF"/>
<path fill-rule="evenodd" clip-rule="evenodd" d="M50.0926 58.88L64.7982 50.8114C65.2336 50.5865 65.3702 50.4617 65.8168 50.2159L66.9492 49.5551C67.6118 49.9988 68.2522 50.2899 68.9974 50.7347C69.4128 50.9826 69.6395 51.0607 70.0548 51.2912L83.8057 58.88C83.8057 62.0177 82.9536 65.9189 82.171 68.3634C80.2462 74.3753 77.2558 79.5554 72.2282 83.3467C71.1377 84.1692 67.7123 86.496 66.77 86.496C64.2543 86.496 59.0434 82.0287 57.3 79.4681C56.8849 78.8584 56.627 78.4982 56.2239 77.8543C53.2712 73.1378 51.2447 66.7676 50.4793 61.3627C50.3934 60.7559 50.2599 59.2541 50.0928 58.88H50.0926ZM67.1285 46.5066C65.7805 46.5066 63.0876 48.3624 61.8059 49.0742L48.4165 56.4866C46.4662 57.4483 46.9627 58.2269 47.6587 62.3899C47.9304 64.0148 48.175 65.1985 48.5506 66.6984C50.3731 73.9743 52.7754 78.9593 57.2195 84.0316C58.7796 85.8122 65.0167 89.9844 67.0275 89.6135C68.5891 89.3254 72.4523 86.8986 73.6372 86.011C79.9251 81.3007 83.6463 74.8938 85.6716 66.8429C86.0638 65.2836 87.1556 59.2291 86.8995 57.9191C86.6971 56.8834 85.1765 56.2658 83.9861 55.6511L77.2898 51.9465C76.0145 51.2998 67.9219 46.5065 67.1285 46.5065V46.5066Z" fill="#714ABF"/>
<path fill-rule="evenodd" clip-rule="evenodd" d="M65.559 74.8848L60.4495 69.8633L62.6023 67.6242C63.4714 68.2204 64.3588 69.8192 65.5145 69.8192C66.9715 69.8192 72.0489 63.3172 74.1221 61.9289L76.317 64.0378L65.5589 74.8848H65.559ZM65.5145 66.2327C63.4998 64.8836 63.4037 62.6641 60.8965 65.2012C55.4171 70.7459 55.1405 68.6804 63.0488 76.5887C65.9154 79.4553 65.4965 79.0725 69.4148 75.1541L78.3811 66.1878C80.0683 64.5019 80.5801 64.1503 78.7401 62.3319L75.871 59.4628C73.6703 57.236 73.4082 58.4286 69.6838 62.1531C68.6715 63.1653 66.5082 65.5672 65.5144 66.2327H65.5145Z" fill="#714ABF"/>
<path fill-rule="evenodd" clip-rule="evenodd" d="M42.561 42.5613C42.561 40.7496 45.4302 40.7496 45.4302 42.5613C45.4302 44.3729 42.561 44.3729 42.561 42.5613ZM39.6919 42.2026C39.6919 48.4537 48.2994 48.4537 48.2994 42.2026C48.2994 40.0076 46.4145 38.2574 43.637 38.2574C41.6642 38.2574 39.6918 40.2299 39.6918 42.2026H39.6919Z" fill="#714ABF"/>
<path fill-rule="evenodd" clip-rule="evenodd" d="M31.0843 51.1688C31.0843 49.3572 33.9535 49.3572 33.9535 51.1688C33.9535 52.9805 31.0843 52.9805 31.0843 51.1688ZM28.2151 50.8102C28.2151 57.0612 36.8227 57.0612 36.8227 50.8102C36.8227 48.6151 34.9377 46.865 32.1602 46.865C30.1875 46.865 28.215 48.8374 28.215 50.8102H28.2151Z" fill="#714ABF"/>
<path fill-rule="evenodd" clip-rule="evenodd" d="M52.6031 32.5189C52.6031 30.7073 55.4723 30.7073 55.4723 32.5189C55.4723 34.3306 52.6031 34.3306 52.6031 32.5189ZM49.7339 32.1603C49.7339 38.4113 58.3415 38.4113 58.3415 32.1603C58.3415 29.9652 56.4566 28.2151 53.679 28.2151C51.7063 28.2151 49.7338 30.1875 49.7338 32.1603H49.7339Z" fill="#714ABF"/>
</svg>
