<svg width="97" height="128" viewBox="0 0 97 128" fill="none" xmlns="http://www.w3.org/2000/svg">
<path d="M96.9788 47.8149C96.1068 75.9758 51.9916 124.266 48.5016 128C45.0402 124.266 0.893185 75.9758 0.0212517 47.8149C-0.789417 21.4722 21.7036 0.116234 48.5016 0C75.2964 0.116234 97.7894 21.5013 96.9788 47.8149Z" fill="#EDEAF3"/>
<path fill-rule="evenodd" clip-rule="evenodd" d="M39.2433 81.3257C35.6198 81.3257 33.6859 81.4837 30.2766 79.7666C25.2206 77.2203 21.1993 71.8626 21.1993 66.2889C21.1993 62.0635 21.4663 59.8947 23.8804 56.1053C24.7701 54.7088 26.2762 53.1727 27.6156 52.155C29.9876 50.3528 33.8376 48.8755 37.4037 48.9114C40.0044 48.9376 42.3406 48.0461 44.1322 46.4507C50.3732 40.8933 46.026 37.0317 50.0696 30.3343C51.5438 27.8926 52.7334 26.5847 55.0173 24.9233C60.6245 20.844 69.766 21.3656 74.6212 25.8988C77.7797 28.8478 80.3438 32.5301 80.3438 37.218C80.3438 42.4812 80.3213 43.9588 79.041 49.1141C78.8499 49.8835 78.6998 50.3714 78.4865 51.0657C78.2671 51.7798 78.0578 52.3462 77.8171 53.0695C77.6105 53.6899 77.3832 54.221 77.122 54.8805C75.6429 58.6144 72.9078 63.0718 70.282 66.0846L67.8368 68.8187C67.6152 69.0195 67.4713 69.0738 67.1849 69.3363C62.7184 73.4302 58.0972 76.7742 52.2137 78.758C48.154 80.1269 43.874 81.3257 39.2434 81.3257H39.2433ZM8.00025 65.6182V64.5188C8.1055 64.1008 8.33661 63.6926 8.71614 63.3292C9.9274 62.1693 13.7452 62.6133 16.1869 62.6133C16.1869 61.8014 16.5403 60.2602 16.7556 59.5063L17.6906 56.7656C16.5005 56.1359 15.2879 55.4143 14.0879 54.6877C13.6865 54.4448 13.5417 54.3756 13.124 54.148C12.738 53.9376 13.0389 54.1391 12.7067 53.8969C12.4472 53.7077 12.5124 53.7484 12.3526 53.5827C10.8797 52.0572 11.5279 49.2473 14.0149 49.2473C15.7974 49.2473 18.7521 51.569 20.3638 52.4217C20.5935 51.5614 21.6289 50.7373 22.2433 50.1243C22.643 49.7258 22.9167 49.4033 23.3457 49.0547C23.7147 48.7549 24.0975 48.3631 24.5406 48.2449C24.3358 47.3657 22.5325 44.5751 21.9592 43.6419C20.7825 41.7264 21.7385 39.3899 23.7052 39.3899C25.6282 39.3899 26.1853 40.6771 26.9312 42.0115C27.4303 42.9045 28.6761 44.6767 28.8846 45.5716C30.9482 44.5814 33.7117 43.8773 36.2375 43.9025C40.4439 43.9445 38.6006 43.1297 35.9418 40.5192C33.7311 38.3486 35.2081 35.3841 37.6476 35.7996C40.7992 36.3364 42.9817 43.3546 42.9205 37.2196C42.8954 34.6937 43.5994 31.9302 44.5896 29.8666C43.964 29.7208 43.2659 29.1714 42.7434 28.8725C41.1348 27.952 38.4078 27.1106 38.4078 24.8544C38.4078 23.5461 39.633 22.3482 41.081 22.3482C42.7215 22.3482 45.5501 25.1236 47.2628 25.5227C47.4963 24.648 48.521 23.8482 49.1422 23.2253C49.5731 22.7934 49.8099 22.5378 50.2695 22.1806C50.7255 21.8261 50.8864 21.4934 51.4396 21.3457C50.7045 19.9564 48.2651 16.5979 48.2651 15.164C48.2651 13.7296 49.3055 12.4908 50.7712 12.4908C52.5021 12.4908 53.112 14.0837 53.769 15.1735C54.4446 16.2943 55.1762 17.5249 55.7835 18.6724C57.745 18.2155 59.4999 17.1688 61.6311 17.1688V11.3212C61.6311 8.96326 64.6865 8.22479 66.1928 9.93382C67.2181 11.0971 66.8103 15.5816 66.8103 17.1688C68.8326 17.1688 70.8409 18.2491 72.658 18.6724C73.2412 17.57 74.9512 14.1273 75.7853 13.279C76.7795 12.2677 78.5063 12.3194 79.477 13.3571C81.3194 15.3267 78.7716 18.0012 77.0019 21.3457C77.8934 21.8175 78.5865 22.5067 79.3021 23.2224C79.7646 23.6849 79.8984 23.9247 80.3063 24.3901C80.7223 24.8648 80.8364 25.0113 81.1788 25.5226C82.5295 24.8079 86.1997 22.3481 87.5277 22.3481C89.7913 22.3481 90.8793 25.5097 89.0642 26.892C88.8435 27.06 88.4919 27.235 88.2279 27.3923C87.212 27.9977 84.7876 29.6168 83.8521 29.8665C84.2754 31.6838 85.3108 33.6977 85.3557 35.7142H90.535C91.9533 35.7142 93.5423 36.465 93.5423 38.0532C93.5423 41.7882 89.6986 40.8935 85.5227 40.8935C85.4235 42.0858 85.2758 43.5657 85.0955 44.8103C84.914 46.0629 84.5495 47.1 84.5202 48.4119C85.4929 48.4336 90.0207 49.6831 90.7359 50.2158C92.5754 51.5859 91.6891 54.7608 89.1983 54.7608C87.6066 54.7608 84.8081 53.6355 83.1836 53.2571L81.0599 58.6517C80.7949 59.2693 80.4969 59.6151 80.3434 60.2743C80.9087 60.4252 81.6488 60.9888 82.1812 61.2767C83.7097 62.1034 86.3581 63.0964 86.3581 65.1194C86.3581 67.5651 83.9207 68.2535 82.1458 67.1597C80.6608 66.2447 79.2065 65.4311 77.6702 64.6182C76.4264 66.9688 74.5378 68.5741 73.1591 70.633C73.8911 71.123 75.0797 72.4698 75.7906 73.1808C76.6197 74.0098 77.8372 74.7672 77.8372 76.3135C77.8372 77.7399 76.7576 78.8195 75.3311 78.8195C73.7848 78.8195 73.0275 77.602 72.1985 76.7729C71.4875 76.062 70.1407 74.8734 69.6507 74.1414C68.6327 74.8232 67.6905 75.7833 66.6915 76.5287C65.6721 77.2893 64.7496 78.0632 63.6359 78.6525C65.1809 81.5724 67.3759 84.0403 66.5307 85.889C66.2457 86.5123 65.3055 87.3404 64.4713 87.3404C62.4875 87.3404 62.0253 86.1568 61.201 84.7632C60.7071 83.9282 59.5144 82.1587 59.292 81.3257C58.3404 81.5474 56.7298 82.418 55.7883 82.8343L52.2749 84.166C52.7169 86.0632 53.7786 88.4295 53.7786 90.3478C53.7786 92.7751 50.5126 93.4355 49.2336 91.7182C48.7009 91.003 47.4514 86.4751 47.4297 85.5025L39.9114 86.505C39.9114 88.2737 39.9582 90.1011 39.9213 91.8613C39.8668 94.4614 36.9222 95.3571 35.3496 93.5728C34.3243 92.4095 34.732 87.9251 34.732 86.338C32.7156 86.293 30.7017 85.2577 28.8844 84.8343C28.7334 85.3997 28.1698 86.1398 27.8819 86.6721C27.365 87.6279 26.4929 89.492 25.7552 90.2259C24.7501 91.2259 23.0444 91.1963 22.0653 90.1496C20.2228 88.1801 22.7708 85.5055 24.5405 82.161C22.8832 81.0513 21.4733 79.6413 20.3635 77.9842C19.0128 78.6988 15.3426 81.1586 14.0146 81.1586C11.751 81.1586 10.663 77.9971 12.4781 76.6148C13.963 75.4839 16.0801 74.4922 17.6902 73.6403C17.4627 72.6635 17.0696 72.0047 16.786 70.8688C16.5561 69.9485 16.1866 68.7896 16.1866 67.7927H11.0073C9.46017 67.7927 8.28673 66.7915 8 65.6183L8.00025 65.6182Z" fill="#714ABF" stroke="#EDEAF3" stroke-width="2" stroke-miterlimit="22.9256"/>
<path fill-rule="evenodd" clip-rule="evenodd" d="M38.4079 70.6327H37.0712C34.3249 70.6327 31.8919 68.1996 31.8919 65.4533C31.8919 64.0214 32.0199 63.0861 32.9598 61.8431C33.5609 61.0481 34.32 60.5187 35.2299 60.1034C37.4158 59.1056 44.9211 60.8614 52.4004 53.3821C55.244 50.5384 57.1402 47.2979 58.125 43.2346C58.8855 40.0971 58.4244 37.8347 59.0695 36.3265C61.5418 30.5471 69.6508 32.5913 69.6508 38.0529C69.6508 41.328 69.4894 43.0654 68.7161 46.1401C66.5983 54.5595 61.1924 61.8216 53.7083 66.2181C49.5557 68.6574 43.9862 70.6326 38.4079 70.6326L38.4079 70.6327ZM26.7126 65.2863C26.7126 70.9161 31.6084 75.812 37.2383 75.812C40.3436 75.812 43.1472 75.3819 45.634 74.8515C51.9416 73.5066 56.4422 70.8761 61.2985 67.1256L63.7618 64.9107C69.5496 59.0747 74.8301 49.9422 74.8301 38.3872C74.8301 32.5118 69.9441 27.6943 64.3044 27.6943C58.9759 27.6943 54.8272 31.525 53.8468 35.9491C53.0086 39.7309 54.3606 44.2377 48.8083 49.79C43.2692 55.329 38.8024 54.0009 35.105 54.7991C30.6486 55.7611 26.7126 59.8087 26.7126 65.2862V65.2863Z" fill="#714ABF" stroke="#EDEAF3" stroke-width="2" stroke-miterlimit="22.9256"/>
</svg>
