<svg width="97" height="128" viewBox="0 0 97 128" fill="none" xmlns="http://www.w3.org/2000/svg">
<path d="M96.9788 47.8149C96.1068 75.9758 51.9916 124.266 48.5016 128C45.0402 124.266 0.893185 75.9758 0.0212517 47.8149C-0.789417 21.4722 21.7036 0.116234 48.5016 0C75.2964 0.116234 97.7894 21.5013 96.9788 47.8149Z" fill="#EDEAF3"/>
<path fill-rule="evenodd" clip-rule="evenodd" d="M20.5381 28.2115C20.5381 26.4613 21.4611 25.5383 23.2113 25.5383C25.0045 25.5383 27.5097 29.8949 29.4647 30.6505C31.5401 31.4526 32.9587 29.0779 37.2453 27.3759C39.6535 26.4196 43.4298 25.6257 43.8289 25.4387C47.5388 23.7001 42.7482 15.0473 47.7712 15.0473C52.7272 15.0473 48.149 23.646 51.6017 25.3835C52.8898 26.0318 56.7885 26.0481 62.0693 29.2843C63.1915 29.9721 64.3224 31.2443 65.9518 30.695C68.4625 29.8486 69.9354 25.5383 72.8325 25.5383C73.9839 25.5383 75.0045 26.5897 75.0045 28.2115C75.0045 30.0047 70.6478 32.5099 69.8923 34.4649C69.0902 36.5403 71.4648 37.9589 73.1669 42.2455C74.1232 44.6537 74.917 48.4301 75.1041 48.8291C76.8427 52.539 85.4955 47.7484 85.4955 52.7715C85.4955 56.6834 79.5095 54.7145 76.7354 55.3378C74.9397 55.7413 74.8758 57.5144 74.5699 58.8529C73.8891 61.8323 72.8028 64.5495 71.2584 67.0696C70.5706 68.1918 69.2984 69.3227 69.8477 70.9521C70.6941 73.4628 75.0044 74.9357 75.0044 77.8328C75.0044 78.9842 73.953 80.0048 72.3313 80.0048C70.538 80.0048 68.0329 75.6481 66.0778 74.8926C64.3998 74.244 63.278 75.5014 62.1724 76.1948C60.9477 76.9629 59.689 77.6146 58.2973 78.1672C55.8891 79.1235 52.1127 79.9173 51.7137 80.1044C49.5518 81.1175 50.2793 83.7299 50.2834 87.1949C50.2887 91.6838 45.2913 91.6012 45.258 87.3632C45.2481 86.0996 45.4291 82.7333 45.2049 81.7357C45.0261 80.9398 44.5599 80.471 43.9409 80.1595C42.6275 79.4984 38.7323 79.4815 33.4733 76.2587C32.3511 75.5709 31.2202 74.2987 29.5908 74.848C27.0801 75.6944 25.6072 80.0047 22.7101 80.0047C21.5587 80.0047 20.5381 78.9533 20.5381 77.3315C20.5381 75.5383 24.8947 73.0332 25.6503 71.0781C26.4524 69.0027 24.0777 67.5841 22.3757 63.2975C21.4194 60.8893 20.6255 57.1129 20.4385 56.7139C18.6999 53.004 10.0471 57.7946 10.0471 52.7715C10.0471 47.8156 18.6458 52.3937 20.3833 48.9411C20.7483 48.2159 20.7575 47.6318 20.9727 46.6902C21.6535 43.7108 22.7398 40.9936 24.2842 38.4735C24.972 37.3513 26.2442 36.2204 25.6949 34.591C25.0153 32.575 20.5382 30.0331 20.5382 28.2115H20.5381ZM47.3078 10.0003H48.2245C50.4544 10.1326 52.6332 11.2258 54.0264 13.2684C55.5764 15.541 55.2896 17.4389 55.2896 21.0272C55.8156 21.2796 57.1632 21.5502 57.8946 21.7637C59.5871 22.2579 61.0649 22.997 62.5852 23.7561C66.1509 25.536 64.0416 25.1422 68.0344 21.9098C73.5576 17.4386 82.4609 23.3171 79.6396 30.6747C79.1398 31.9781 78.1055 33.2228 77.1349 34.1847C76.6045 34.7103 76.0711 35.1349 75.6727 35.7297C75.7911 36.2378 77.9776 39.904 78.7789 42.648C78.9924 43.3794 79.2631 44.727 79.5154 45.253C83.1877 45.253 84.938 44.9251 87.2742 46.5163C89.3167 47.9075 90.406 50.075 90.5423 52.2943V53.2485C90.4059 55.4679 89.3168 57.6353 87.2742 59.0265C84.938 60.6177 83.1877 60.2898 79.5154 60.2898C79.263 60.8157 78.9924 62.1633 78.7789 62.8947C77.9776 65.6387 75.7911 69.3049 75.6727 69.813C76.6693 71.3014 82.1891 74.7023 79.4482 80.7728C77.5909 84.8868 71.6019 86.7032 67.9452 83.5551C67.3782 83.067 66.9382 82.6362 66.3804 82.1126C66.0421 81.795 65.1202 80.8934 64.98 80.5057C62.6958 81.7143 60.4758 83.0252 57.8946 83.7789C57.1632 83.9924 55.8156 84.2631 55.2896 84.5154C55.2896 88.196 55.56 90.1373 53.9579 92.3728C52.5431 94.3473 50.3997 95.4095 48.2114 95.5423H47.2642C45.0605 95.4058 42.9113 94.3226 41.5161 92.2742C39.9249 89.938 40.2528 88.1878 40.2528 84.5154C39.51 84.1591 36.9278 83.7687 32.9572 81.7865C32.3476 81.4822 31.243 80.7923 30.7295 80.6727C29.9696 81.1817 28.9887 82.4759 27.4859 83.6109C24.3582 85.9731 20.4232 85.6469 17.5705 82.8048C14.6606 79.9055 14.6228 75.6483 17.4667 72.4222C17.4895 72.3963 17.5215 72.3585 17.5443 72.3327L18.8959 71.0111C19.0555 70.867 19.0837 70.8357 19.2335 70.6805C20.0299 69.8555 19.8696 70.2504 19.8696 69.8128C19.8696 69.568 17.9583 66.0419 17.6714 65.328L16.0269 60.2896C12.3463 60.2896 10.405 60.5599 8.1695 58.9579C6.17291 57.5272 5.12465 55.3854 5 53.2062V52.3212C5.12822 50.0869 6.22562 47.9092 8.26815 46.5161C10.5407 44.9661 12.4386 45.2529 16.0269 45.2529C16.4091 44.4561 16.677 42.1281 18.8114 37.8458C20.1664 35.1274 20.0871 35.7994 19.4697 35.127L18.6258 34.3001C14.9129 31.0077 14.0117 26.3258 17.7389 22.572C18.4328 21.8732 19.0229 21.3988 20.006 20.9964C26.0126 18.5377 29.1141 23.7881 30.7294 24.8697C31.2429 24.7501 32.3475 24.0601 32.9571 23.7558C36.9277 21.7737 39.51 21.3833 40.2528 21.0269C40.2528 17.3546 39.9248 15.6043 41.516 13.2682C42.9138 11.2158 45.0863 10.1305 47.3076 10L47.3078 10.0003Z" fill="#714ABF" stroke="#EDEAF3" stroke-width="2" stroke-miterlimit="22.9256"/>
<path fill-rule="evenodd" clip-rule="evenodd" d="M33.5699 53.7735C33.5699 51.9097 34.3793 51.1003 36.2431 51.1003C37.4048 51.1003 38.7556 52.8612 39.4592 53.5647C40.6045 54.7098 41.9236 55.4962 41.9236 57.115C41.9236 58.6764 40.8174 59.454 39.2505 59.454C38.0887 59.454 36.7378 57.6932 36.0343 56.9897C35.3308 56.2862 33.57 54.9352 33.57 53.7735H33.5699ZM28.3905 53.6065C28.3905 55.7389 29.2259 57.1827 30.3433 58.5038C31.4394 59.7996 31.6345 59.7992 32.7561 60.9362C32.7902 60.9707 32.8851 61.0727 32.9194 61.107L34.0881 62.2775C40.602 69.1356 51.7145 59.7906 45.1502 52.0508C43.9295 50.6115 42.5331 49.1412 41.0651 47.9493C40.708 47.6594 40.6316 47.5128 40.2479 47.2627C34.7817 43.7011 28.3906 47.7439 28.3906 53.6066L28.3905 53.6065Z" fill="#714ABF" stroke="#EDEAF3" stroke-width="2" stroke-miterlimit="22.9256"/>
<path fill-rule="evenodd" clip-rule="evenodd" d="M51.2799 44.4178C49.4161 44.4178 48.6067 43.6084 48.6067 41.7446C48.6067 40.5828 50.3675 39.2319 51.071 38.5284C52.2162 37.3832 53.0025 36.0641 54.6214 36.0641C56.28 36.0641 56.9604 37.1713 56.9604 38.7373C56.9604 39.899 55.1996 41.2499 54.496 41.9534C53.7925 42.6569 52.4416 44.4178 51.2798 44.4178H51.2799ZM43.4274 41.9117C43.4274 48.0698 50.5691 52.2589 56.0101 47.6443L58.1717 45.6291C58.6543 45.1465 59.0388 44.7872 59.5118 44.2959C67.4038 36.0976 55.7081 25.946 48.8907 33.5077C48.6135 33.8152 48.5138 33.8855 48.2111 34.1646C48.1858 34.1879 48.1493 34.2213 48.1244 34.2449L46.0578 36.1882C44.6821 37.5008 43.4275 39.7562 43.4275 41.9117H43.4274Z" fill="#714ABF" stroke="#EDEAF3" stroke-width="2" stroke-miterlimit="22.9256"/>
<path fill-rule="evenodd" clip-rule="evenodd" d="M55.2898 62.9631C55.2691 62.83 55.4264 62.1601 55.4821 61.986C55.7718 61.0813 56.6486 60.3986 57.6607 60.3305C59.0609 60.2361 60.1773 61.4118 60.2615 62.661C60.4674 65.7165 55.8101 66.326 55.2898 62.9632V62.9631ZM50.2776 62.4619C50.2776 65.6824 51.7319 68.2371 54.3932 69.5403C57.2663 70.947 60.7213 70.4966 63.0179 68.1851C63.7131 67.4854 64.0699 67.1589 64.5401 66.1987C65.5749 64.0852 65.5908 61.638 64.5945 59.5061C63.5955 57.368 61.0518 55.2777 58.13 55.2777C56.6583 55.2777 55.8964 55.3477 54.506 55.9975C52.3679 56.9966 50.2776 59.5402 50.2776 62.462V62.4619Z" fill="#714ABF" stroke="#EDEAF3" stroke-width="2" stroke-miterlimit="22.9256"/>
<path fill-rule="evenodd" clip-rule="evenodd" d="M30.2286 37.4002C30.2286 41.5973 35.2408 40.6001 35.2408 38.0685C35.2408 33.8714 30.2286 34.8686 30.2286 37.4002Z" fill="#714ABF" stroke="#EDEAF3" stroke-width="2" stroke-miterlimit="22.9256"/>
<path fill-rule="evenodd" clip-rule="evenodd" d="M65.3143 47.425C65.3143 51.6221 70.3265 50.6249 70.3265 48.0933C70.3265 43.8962 65.3143 44.8934 65.3143 47.425Z" fill="#714ABF" stroke="#EDEAF3" stroke-width="2" stroke-miterlimit="22.9256"/>
<path fill-rule="evenodd" clip-rule="evenodd" d="M45.2653 72.4866C45.2653 76.6837 50.2775 75.6865 50.2775 73.1549C50.2775 68.9578 45.2653 69.955 45.2653 72.4866Z" fill="#714ABF" stroke="#EDEAF3" stroke-width="2" stroke-miterlimit="22.9256"/>
</svg>
