<svg width="326" height="268" viewBox="0 0 326 268" fill="none" xmlns="http://www.w3.org/2000/svg">
<g opacity="0.3">
<path d="M387.706 225.797C384.308 113.129 212.485 -80.0653 198.894 -95C185.425 -80.0653 13.4803 113.129 10.0826 225.797C6.92769 331.175 94.5381 416.602 198.894 417.08C303.25 416.602 390.861 331.056 387.706 225.797Z" stroke="#8F71CB" stroke-width="20" stroke-miterlimit="10"/>
<path d="M343.9 271.079C341.352 185.055 210.057 37.5008 199.743 26.031C189.429 37.5008 58.1346 185.055 55.5864 271.079C53.1595 351.487 120.02 416.841 199.743 417.2C279.466 416.841 346.327 351.487 343.9 271.079Z" stroke="#8F71CB" stroke-width="20" stroke-miterlimit="10"/>
<path d="M291.725 324.723C290.148 269.883 206.42 175.854 199.868 168.566C193.315 175.854 109.588 269.883 108.01 324.723C106.433 375.978 149.146 417.676 199.868 417.915C250.711 417.676 293.303 376.098 291.725 324.723Z" stroke="#8F71CB" stroke-width="20" stroke-miterlimit="10"/>
<path d="M291.725 58.8866C290.148 113.727 206.42 207.755 199.868 215.043C193.315 207.755 109.588 113.727 108.01 58.8866C106.433 7.63086 149.146 -34.0667 199.868 -34.3057C250.711 -34.0667 293.303 7.51138 291.725 58.8866Z" stroke="#8F71CB" stroke-width="20" stroke-miterlimit="10"/>
</g>
</svg>
