<svg width="308" height="313" viewBox="0 0 308 313" fill="none" xmlns="http://www.w3.org/2000/svg">
<g opacity="0.3">
<path d="M387.706 267.797C384.308 155.129 212.485 -38.0653 198.894 -53C185.425 -38.0653 13.4803 155.129 10.0826 267.797C6.92769 373.175 94.5381 458.602 198.894 459.08C303.25 458.602 390.861 373.056 387.706 267.797Z" stroke="#8F71CB" stroke-width="20" stroke-miterlimit="10"/>
<path d="M343.9 313.079C341.352 227.055 210.057 79.5008 199.743 68.0309C189.429 79.5008 58.1346 227.055 55.5863 313.079C53.1595 393.487 120.02 458.841 199.743 459.2C279.466 458.841 346.327 393.487 343.9 313.079Z" stroke="#8F71CB" stroke-width="20" stroke-miterlimit="10"/>
<path d="M291.725 366.723C290.148 311.883 206.42 217.854 199.868 210.566C193.315 217.854 109.588 311.883 108.01 366.723C106.433 417.978 149.146 459.676 199.868 459.915C250.711 459.676 293.303 418.098 291.725 366.723Z" stroke="#8F71CB" stroke-width="20" stroke-miterlimit="10"/>
<path d="M291.725 100.887C290.148 155.727 206.42 249.755 199.868 257.043C193.315 249.755 109.588 155.727 108.01 100.887C106.433 49.6308 149.146 7.93323 199.868 7.69427C250.711 7.93323 293.303 49.5113 291.725 100.887Z" stroke="#8F71CB" stroke-width="20" stroke-miterlimit="10"/>
</g>
</svg>
