<svg width="137" height="146" viewBox="0 0 137 146" fill="none" xmlns="http://www.w3.org/2000/svg">
<path d="M96.9788 98.1851C96.1068 70.0242 51.9916 21.734 48.5016 18C45.0402 21.734 0.893185 70.0242 0.0212517 98.1851C-0.789417 124.528 21.7036 145.884 48.5016 146C75.2964 145.884 97.7894 124.499 96.9788 98.1851Z" fill="#D9D1EA"/>
<path opacity="0.2" d="M91.8961 71.5107L55.1254 108.281C51.6237 111.783 46.8744 113.75 41.9222 113.75C36.9701 113.75 32.2208 111.783 28.7191 108.281C25.2175 104.78 23.2503 100.03 23.2503 95.0782C23.2503 90.1261 25.2175 85.3768 28.7191 81.8751L43.9535 66.6407C48.7117 64.7872 57.0449 63.411 67.9121 69.0884C78.7793 74.7657 87.1379 73.3642 91.8961 71.5107Z" fill="#6F50AC"/>
<path d="M127.687 43.8438L97.218 13.3751C96.8407 12.9974 96.3926 12.6977 95.8994 12.4933C95.4063 12.2888 94.8776 12.1836 94.3437 12.1836C93.8099 12.1836 93.2812 12.2888 92.788 12.4933C92.2949 12.6977 91.8468 12.9974 91.4695 13.3751L25.8449 78.9997C21.5809 83.2637 19.1855 89.0468 19.1855 95.077C19.1855 101.107 21.5809 106.89 25.8449 111.154C30.1089 115.418 35.8921 117.814 41.9223 117.814C47.9524 117.814 53.7356 115.418 57.9996 111.154L114.819 54.3352L126.097 50.5774C126.755 50.3588 127.345 49.9756 127.813 49.4644C128.28 48.9531 128.61 48.3308 128.769 47.6565C128.928 46.9822 128.912 46.2784 128.723 45.612C128.533 44.9456 128.177 44.3386 127.687 43.8489V43.8438ZM52.2512 105.406C49.4948 108.062 45.806 109.531 41.9781 109.496C38.1502 109.46 34.489 107.924 31.7822 105.217C29.0753 102.51 27.539 98.8491 27.5037 95.0212C27.4684 91.1933 28.9369 87.5044 31.5933 84.7481L46.2183 70.1231C50.5195 68.6505 57.2633 68.0919 66.0586 72.6622C71.4414 75.4755 76.3062 76.7247 80.5617 77.0954L52.2512 105.406ZM111.34 46.9262C110.741 47.1251 110.197 47.4606 109.751 47.9063L89.6566 68.0005C85.3555 69.4731 78.6117 70.0317 69.8164 65.4614C64.4336 62.6481 59.5687 61.3989 55.3133 61.0282L94.3437 21.9926L117.292 44.9407L111.34 46.9262Z" fill="#684C9E"/>
</svg>
